<?xml version="1.0" encoding="utf-8"?>
<svg xmlns="http://www.w3.org/2000/svg" viewBox="0 0 50 50" width="100" height="100">
  <path d="M14.984375 3.9863281 A 1.0001 1.0001 0 0 0 14.839844 4L5 4 A 1.0001 1.0001 0 0 0 4 5L4 14.832031 A 1.0001 1.0001 0 0 0 4 15.158203L4 24.832031 A 1.0001 1.0001 0 0 0 4 25.158203L4 34.832031 A 1.0001 1.0001 0 0 0 4 35.158203L4 45 A 1.0001 1.0001 0 0 0 5 46L14.832031 46 A 1.0001 1.0001 0 0 0 15.158203 46L24.832031 46 A 1.0001 1.0001 0 0 0 25.158203 46L34.832031 46 A 1.0001 1.0001 0 0 0 35.158203 46L45 46 A 1.0001 1.0001 0 0 0 46 45L46 35.167969 A 1.0001 1.0001 0 0 0 46 34.841797L46 25.167969 A 1.0001 1.0001 0 0 0 46 24.841797L46 15.167969 A 1.0001 1.0001 0 0 0 46 14.841797L46 5 A 1.0001 1.0001 0 0 0 45 4L35.154297 4 A 1.0001 1.0001 0 0 0 34.984375 3.9863281 A 1.0001 1.0001 0 0 0 34.839844 4L25.154297 4 A 1.0001 1.0001 0 0 0 24.984375 3.9863281 A 1.0001 1.0001 0 0 0 24.839844 4L15.154297 4 A 1.0001 1.0001 0 0 0 14.984375 3.9863281 z M 6 6L14 6L14 14L6 14L6 6 z M 16 6L24 6L24 14L16 14L16 6 z M 26 6L34 6L34 14L26 14L26 6 z M 36 6L44 6L44 14L36 14L36 6 z M 6 16L14 16L14 24L6 24L6 16 z M 16 16L24 16L24 24L16 24L16 16 z M 26 16L34 16L34 24L26 24L26 16 z M 36 16L44 16L44 24L36 24L36 16 z M 6 26L14 26L14 34L6 34L6 26 z M 16 26L24 26L24 34L16 34L16 26 z M 26 26L34 26L34 34L26 34L26 26 z M 36 26L44 26L44 34L36 34L36 26 z M 6 36L14 36L14 44L6 44L6 36 z M 16 36L24 36L24 44L16 44L16 36 z M 26 36L34 36L34 44L26 44L26 36 z M 36 36L44 36L44 44L36 44L36 36 z" />
</svg>